<?xml version="1.0" standalone="no"?>
<!DOCTYPE svg PUBLIC "-//W3C//DTD SVG 20010904//EN"
 "http://www.w3.org/TR/2001/REC-SVG-20010904/DTD/svg10.dtd">
<svg version="1.0" xmlns="http://www.w3.org/2000/svg"
 width="1024.000000pt" height="578.000000pt" viewBox="0 0 1024.000000 578.000000"
 preserveAspectRatio="xMidYMid meet">

<g transform="translate(0.000000,578.000000) scale(0.100000,-0.100000)"
fill="#000000" stroke="none">
<path d="M0 2890 l0 -2890 5120 0 5120 0 0 2890 0 2890 -5120 0 -5120 0 0
-2890z m4991 1549 c82 -28 132 -92 145 -187 l6 -51 25 47 c53 100 157 172 278
192 33 5 147 10 253 10 l192 0 0 -55 0 -55 -213 0 c-261 0 -299 -8 -369 -80
-56 -58 -78 -121 -78 -226 0 -101 24 -169 80 -225 65 -65 113 -79 272 -79
l128 0 0 -37 c0 -61 -20 -165 -39 -209 -25 -55 -85 -120 -135 -147 -35 -19
-57 -22 -151 -22 -129 0 -174 16 -242 84 -52 53 -78 121 -86 227 -10 137 -69
256 -156 317 l-46 32 -167 3 -168 3 0 55 0 54 218 0 c238 0 247 2 277 60 30
58 11 155 -34 180 -12 6 -108 10 -240 10 l-221 0 0 48 c0 27 3 52 7 55 11 12
427 8 464 -4z m-41 -214 l0 -55 -215 0 -215 0 0 55 0 55 215 0 215 0 0 -55z
m940 0 l0 -55 -200 0 c-222 0 -247 -5 -275 -60 -19 -37 -19 -113 0 -149 26
-51 72 -61 285 -61 l190 0 0 -174 c0 -201 -13 -262 -78 -362 -103 -157 -241
-234 -422 -234 -148 0 -258 41 -355 132 -96 89 -145 199 -160 358 -7 77 -36
142 -74 170 -24 16 -48 20 -152 22 l-124 3 -3 53 -3 52 129 0 c117 0 132 -2
179 -25 88 -44 139 -131 154 -263 5 -48 14 -103 21 -122 34 -107 107 -193 201
-236 57 -27 71 -29 182 -29 110 0 125 2 175 27 151 73 230 219 230 424 l0 104
-164 0 c-160 0 -165 1 -217 28 -39 20 -62 41 -84 76 -27 44 -30 57 -30 130 0
124 44 191 147 227 44 15 86 18 251 19 l197 0 0 -55z m0 -190 l0 -55 -212 2
-213 3 -3 39 c-6 69 -15 66 218 66 l210 0 0 -55z m-1440 -260 c0 -24 5 -35 15
-36 34 -3 38 -4 41 -14 2 -5 -36 -60 -84 -120 -48 -61 -280 -355 -517 -654
-236 -299 -492 -623 -568 -720 -76 -97 -142 -180 -147 -185 -4 -4 -39 9 -77
29 -247 135 -303 167 -303 171 0 3 24 29 54 57 146 142 281 272 486 467 124
118 288 276 365 350 130 126 506 486 655 628 36 34 68 62 73 62 4 0 7 -16 7
-35z m258 -44 l24 -1 -20 -32 c-65 -110 -1027 -1704 -1098 -1821 -17 -28 -35
-46 -44 -45 -8 2 -86 41 -173 88 -99 54 -155 90 -152 98 2 6 55 78 118 160 62
81 173 226 247 322 74 96 161 211 195 255 34 44 194 253 355 465 161 212 318
415 347 453 l54 67 62 -4 c34 -3 73 -5 85 -5z m-410 -20 c-1 -5 -100 -98 -219
-207 -266 -246 -830 -763 -1054 -968 -60 -56 -139 -128 -175 -161 -120 -111
-84 -110 -277 -5 -92 50 -172 95 -176 99 -4 4 137 104 315 221 178 117 429
282 558 367 129 85 408 269 620 409 350 231 418 272 408 245z m477 -11 c11
-12 19 -42 22 -82 l5 -63 -397 -955 c-219 -525 -403 -965 -409 -977 -11 -22
-14 -21 -174 66 -90 49 -168 93 -174 99 -10 10 130 257 782 1387 70 121 169
293 220 383 52 89 97 162 100 162 4 0 15 -9 25 -20z m1247 1 c13 -5 120 -111
238 -236 118 -126 227 -240 241 -254 14 -14 136 -143 270 -285 134 -143 337
-358 452 -479 114 -121 207 -223 207 -226 0 -8 -360 -204 -365 -199 -1 1 -166
226 -365 498 -200 272 -400 545 -445 605 -44 61 -127 174 -184 252 l-104 142
2 87 c3 111 4 114 53 95z m-1852 -6 c0 -5 34 16 -695 -448 -319 -203 -602
-384 -630 -402 -27 -18 -157 -101 -289 -184 l-239 -152 -201 110 c-110 60
-201 115 -201 121 0 7 198 98 440 202 242 105 735 318 1095 474 581 251 720
305 720 279z m1978 -48 c42 -30 214 -150 382 -267 168 -117 533 -373 813 -568
279 -195 507 -358 507 -362 0 -4 -80 -50 -177 -103 l-178 -96 -717 717 c-395
394 -718 720 -718 724 0 14 11 9 88 -45z m392 -115 c173 -79 403 -185 510
-234 107 -50 434 -201 725 -335 292 -134 534 -248 538 -253 8 -7 -324 -197
-361 -206 -21 -6 -1789 1172 -1770 1178 18 7 7 11 358 -150z m-2580 141 c0 -5
-103 -52 -228 -105 -125 -53 -591 -253 -1037 -444 -445 -191 -819 -349 -831
-351 -24 -5 -459 226 -447 238 5 4 184 53 398 109 215 56 543 142 730 191 187
49 490 128 673 176 182 47 330 88 328 90 -2 2 -50 -7 -107 -21 -57 -14 -232
-55 -389 -91 -258 -60 -470 -109 -710 -165 -47 -11 -298 -69 -558 -130 l-474
-110 -196 106 c-242 131 -284 155 -279 160 4 5 177 25 407 49 85 9 196 20 245
26 116 12 770 81 1572 164 348 36 643 63 655 60 13 -3 70 8 128 24 119 34 120
34 120 24z m2541 -72 c35 -11 278 -81 539 -156 1701 -490 1711 -493 1717 -499
5 -4 -40 -30 -251 -144 l-129 -70 -66 30 c-36 16 -253 113 -481 215 -228 102
-604 270 -835 373 -231 103 -454 202 -495 220 -119 53 -118 67 1 31z m778 -96
c306 -42 768 -104 1026 -139 259 -36 580 -79 715 -97 135 -17 248 -35 252 -38
4 -4 -89 -60 -207 -124 l-214 -118 -188 50 c-1036 276 -1952 523 -1968 530
-19 9 -18 10 4 10 14 1 275 -33 580 -74z m-2455 -47 c3 -18 19 -59 35 -90 l29
-57 -68 -248 c-95 -347 -176 -642 -286 -1043 -53 -190 -111 -403 -131 -475
-19 -71 -39 -134 -43 -138 -6 -7 -307 148 -329 169 -4 3 21 65 462 1159 331
819 304 755 315 755 6 0 13 -15 16 -32z m1433 -396 c161 -229 396 -563 522
-742 172 -244 226 -328 217 -337 -14 -15 -341 -193 -354 -193 -9 0 -127 227
-656 1260 l-120 236 36 74 c20 41 39 85 43 98 3 12 9 22 13 22 4 0 139 -188
299 -418z m-1297 157 c27 -29 46 -58 44 -68 -2 -9 -35 -261 -74 -561 -192
-1514 -176 -1389 -183 -1396 -8 -8 -328 166 -334 181 -2 7 61 262 141 567 172
658 185 705 276 1051 38 148 70 271 70 273 0 12 18 -2 60 -47z m944 -41 c24
-51 83 -174 131 -273 48 -99 131 -272 185 -385 54 -113 146 -304 204 -424 145
-298 161 -335 150 -345 -5 -5 -76 -45 -159 -90 -131 -70 -151 -78 -157 -63 -4
9 -64 170 -133 357 -158 426 -209 562 -335 900 l-101 270 28 19 c15 11 51 43
78 72 28 29 54 53 58 53 4 1 27 -41 51 -91z m-802 -63 l63 -34 -22 -1018 c-12
-560 -22 -1030 -22 -1045 -1 -16 -5 -28 -11 -28 -8 0 -293 153 -308 165 -1 1
36 333 83 736 119 1020 145 1241 145 1251 0 12 4 11 72 -27z m633 -153 c24
-70 140 -410 259 -757 119 -346 215 -636 214 -643 -4 -17 -321 -194 -329 -184
-3 4 -16 54 -28 112 -12 58 -33 155 -46 215 -152 705 -285 1347 -280 1355 3 6
14 10 23 10 9 0 42 11 72 23 46 19 56 21 64 9 4 -8 27 -71 51 -140z m-423 67
c4 -13 37 -418 73 -899 36 -481 68 -900 71 -931 l6 -56 -123 -68 c-68 -38
-139 -77 -157 -87 -18 -10 -35 -18 -38 -18 -3 0 -4 91 -1 202 2 112 12 581 22
1043 9 462 18 845 20 851 2 8 20 7 62 -1 48 -10 59 -16 65 -36z m209 -69 c10
-52 45 -237 78 -410 33 -173 96 -506 140 -740 44 -234 83 -435 86 -447 4 -19
-13 -31 -152 -107 -87 -47 -159 -84 -161 -82 -2 2 -32 316 -67 697 -63 686
-76 819 -95 1014 -5 55 -10 114 -10 132 l0 32 68 4 c37 2 74 3 82 3 10 -1 19
-29 31 -96z"/>
<path d="M5103 4088 c-6 -14 -29 -41 -51 -59 l-40 -33 39 -51 c71 -94 103
-185 114 -326 8 -97 34 -145 96 -176 25 -13 71 -27 102 -30 119 -12 200 51
230 178 l7 26 -89 6 c-104 8 -180 33 -245 83 -92 70 -134 162 -145 314 -5 83
-7 91 -18 68z"/>
<path d="M3578 3583 c7 -3 16 -2 19 1 4 3 -2 6 -13 5 -11 0 -14 -3 -6 -6z"/>
</g>
</svg>
